Coordinates
version=1
nRows=9
nColumns=63
inDegrees=yes

Units are S.I. units (second, meters, Newtons, ...)
If the header above contains a line with 'inDegrees', this indicates whether rotational values are in degrees (yes) or radians (no).

endheader
time	pelvis_tilt	pelvis_list	pelvis_rotation	pelvis_tx	pelvis_ty	pelvis_tz	hip_flexion_r	hip_adduction_r	hip_rotation_r	knee_angle_r	knee_angle_r_beta	ankle_angle_r	subtalar_angle_r	mtp_angle_r	hip_flexion_l	hip_adduction_l	hip_rotation_l	knee_angle_l	knee_angle_l_beta	ankle_angle_l	subtalar_angle_l	mtp_angle_l	L5_S1_Flex_Ext	L5_S1_Lat_Bending	L5_S1_axial_rotation	L4_L5_Flex_Ext	L4_L5_Lat_Bending	L4_L5_axial_rotation	L3_L4_Flex_Ext	L3_L4_Lat_Bending	L3_L4_axial_rotation	L2_L3_Flex_Ext	L2_L3_Lat_Bending	L2_L3_axial_rotation	L1_L2_Flex_Ext	L1_L2_Lat_Bending	L1_L2_axial_rotation	L1_T12_Flex_Ext	L1_T12_Lat_Bending	L1_T12_axial_rotation	Abs_r3	Abs_r2	Abs_r1	Abs_t1	Abs_t2	neck_flexion	neck_bending	neck_rotation	arm_flex_r	arm_add_r	arm_rot_r	elbow_flex_r	pro_sup_r	wrist_flex_r	wrist_dev_r	arm_flex_l	arm_add_l	arm_rot_l	elbow_flex_l	pro_sup_l	wrist_flex_l	wrist_dev_l
1.118644	2.270070	-3.194752	95.724290	0.264560	0.765406	0.804427	-4.246376	5.463644	-1.305093	3.808669	0.066474	24.840465	-0.895247	0.000000	-2.616998	-3.451514	-16.262047	8.349181	0.145721	30.914789	12.878068	0.000000	-0.314304	0.916610	1.674090	-0.583694	1.219091	1.778721	-0.516370	2.228645	1.778721	-0.359218	2.228645	1.464829	-0.291863	1.869151	1.360198	-0.179593	1.419828	1.255568	-2.245042	10.368872	9.310788	0.000000	0.000000	-9.140466	-4.714447	-9.374639	46.096272	-8.306244	63.190427	99.434689	86.115640	7.697335	16.204345	16.292176	-16.598971	174.621039	0.139942	1.654091	-45.600504	-23.775001
1.135593	2.526117	-2.719805	95.632054	0.264004	0.767187	0.804293	-4.747840	5.711658	-1.725385	3.808574	0.066472	24.531062	-0.188984	0.000000	-3.112130	-3.752002	-16.395760	8.432544	0.147176	30.739857	12.911672	0.000000	-0.349494	0.973936	1.836725	-0.649046	1.295335	1.951521	-0.574184	2.368028	1.951521	-0.399437	2.368028	1.607135	-0.324540	1.986051	1.492339	-0.199701	1.508627	1.377544	-2.496403	11.017361	10.215316	0.000000	0.000000	-9.786235	-4.916466	-9.532472	45.799804	-8.679433	64.246031	101.060542	85.594751	7.308903	17.634621	17.026276	-15.296640	176.437236	0.126011	0.718922	-50.453074	-24.368320
1.152542	2.801748	-2.262531	95.594143	0.263336	0.768863	0.804651	-5.140140	5.970529	-2.321587	3.918665	0.068394	24.317354	0.611780	0.000000	-3.515898	-4.082706	-16.504074	8.594252	0.149998	30.666525	12.982796	0.000000	-0.385190	1.032577	1.994044	-0.715336	1.373328	2.118672	-0.632829	2.510608	2.118672	-0.440234	2.510608	1.744789	-0.357687	2.105631	1.620161	-0.220098	1.599462	1.495533	-2.751374	11.680719	11.090276	0.000000	0.000000	-10.356887	-5.048354	-9.786282	45.442824	-9.252230	64.905919	102.288279	85.042859	6.923374	18.654133	17.791423	-13.985149	178.350461	0.111640	0.626029	-55.021221	-24.626395
1.169492	3.079868	-1.834733	95.596542	0.262640	0.770391	0.805434	-5.429015	6.227851	-3.044556	4.111982	0.071768	24.210392	1.484974	0.000000	-3.831199	-4.420601	-16.550577	8.811745	0.153794	30.667782	13.020657	0.000000	-0.420494	1.089324	2.153881	-0.780899	1.448801	2.288498	-0.690829	2.648583	2.288498	-0.480582	2.648583	1.884646	-0.390470	2.221350	1.750028	-0.240270	1.687363	1.615411	-3.003544	12.322655	11.979239	0.000000	0.000000	-10.831497	-5.143727	-10.232465	44.990178	-9.980455	65.190649	103.219243	84.551467	6.771154	19.328211	18.616785	-12.694194	180.820639	0.097981	0.771599	-59.113783	-24.558985
1.186441	3.368727	-1.453475	95.631484	0.261926	0.771736	0.806538	-5.616870	6.495534	-3.804346	4.357197	0.076047	24.179197	2.332758	0.000000	-4.049549	-4.771211	-16.547338	9.078566	0.158451	30.727323	13.022797	0.000000	-0.452411	1.145600	2.310061	-0.840172	1.523648	2.454440	-0.743266	2.785412	2.454440	-0.517060	2.785412	2.021304	-0.420109	2.336108	1.876925	-0.258508	1.774535	1.732546	-3.231526	12.959258	12.847868	0.000000	0.000000	-11.198566	-5.242480	-10.802149	44.464329	-10.813535	65.199539	103.903734	84.260405	7.011207	19.615266	19.444024	-11.448844	183.432937	0.090522	1.029373	-62.659016	-24.311541
1.203390	3.657474	-1.118929	95.725824	0.261146	0.772859	0.807899	-5.723289	6.766704	-4.564134	4.623751	0.080700	24.210066	3.086311	0.000000	-4.175206	-5.124036	-16.476924	9.384118	0.163784	30.836104	13.014469	0.000000	-0.481156	1.201384	2.454141	-0.893554	1.597841	2.607525	-0.790490	2.921045	2.607525	-0.549913	2.921045	2.147373	-0.446801	2.449862	1.993990	-0.274932	1.860944	1.840606	-3.436846	13.590297	13.649197	0.000000	0.000000	-11.428699	-5.390990	-11.399435	43.916038	-11.744210	65.055964	104.441668	84.181987	7.519905	19.615582	20.264227	-10.266832	186.084788	0.088372	1.170177	-65.619737	-24.070733
1.220339	3.946719	-0.839743	95.849146	0.260329	0.773736	0.809410	-5.753770	7.037113	-5.296897	4.900086	0.085523	24.284725	3.745379	0.000000	-4.219908	-5.473602	-16.372445	9.707404	0.169426	30.976344	13.001938	0.000000	-0.504413	1.256851	2.586054	-0.936746	1.671612	2.747682	-0.828701	3.055909	2.747682	-0.576494	3.055909	2.262797	-0.468398	2.562972	2.101169	-0.288222	1.946863	1.939540	-3.602975	14.217755	14.382854	0.000000	0.000000	-11.543270	-5.636852	-11.979433	43.341256	-12.743896	64.798577	104.885099	84.290052	8.241451	19.407936	21.039948	-9.145855	188.426246	0.089375	1.246019	-68.029242	-23.960865
1.237288	4.235910	-0.602621	95.992679	0.259456	0.774382	0.810985	-5.740357	7.305125	-5.977569	5.162926	0.090110	24.378226	4.306828	0.000000	-4.214622	-5.810980	-16.200517	10.020379	0.174889	31.128709	12.926819	0.000000	-0.522480	1.312855	2.705289	-0.970297	1.746097	2.874370	-0.858382	3.192076	2.874370	-0.597142	3.192076	2.367128	-0.485175	2.677174	2.198047	-0.298545	2.033612	2.028967	-3.732020	14.851279	15.046006	0.000000	0.000000	-11.568064	-6.018780	-12.498891	42.715889	-13.802739	64.414071	105.260359	84.573680	9.189837	19.074222	21.785037	-8.070732	190.354986	0.088532	1.358065	-69.719919	-23.969121
1.254237	4.498461	-0.421967	96.139518	0.258585	0.774766	0.812567	-5.671690	7.544939	-6.540557	5.419507	0.094588	24.474869	4.683551	0.000000	-4.151880	-6.106928	-15.943047	10.323566	0.180180	31.287018	12.753819	0.000000	-0.532864	1.364948	2.817480	-0.989582	1.815381	2.993572	-0.875443	3.318735	2.993572	-0.609010	3.318735	2.465295	-0.494818	2.783403	2.289202	-0.304479	2.114305	2.113110	-3.806195	15.440569	15.669978	0.000000	0.000000	-11.521845	-6.508189	-12.950018	41.998407	-14.918301	63.882030	105.610013	85.012788	10.246963	18.738125	22.493302	-7.036663	192.066496	0.086698	1.359260	-70.862773	-23.999518
